PathFileType	4	(X/Y/Z)	C:/Users/opensim2020/Desktop/walking_exp_matlab/subject06_walking14_straight_01.trc	
DataRate	CameraRate	NumFrames	NumMarkers	Units	OrigDataRate	OrigDataStartFrame	OrigNumFrames	
100.00	100.00	9	45	mm	100.00	936	203	
Frame#	Time	LFHD			RFHD			LBHD			RBHD			C7			T10			CLAV			STRN			RBAK			LSHO			LUPA			LELB			LFRM			LWRA			LWRB			LFIN			RSHO			RUPA			RELB			RFRM			RWRA			RWRB			RFIN			LASI			RASI			LPSI			RPSI			LTHI			LKNE			LTIB			LANK			LHEE			LTOE			RTHI			RKNE			RTIB			RANK			RHEE			RTOE			*39			*40			*41			*42			*43			*44			
		X1	Y1	Z1	X2	Y2	Z2	X3	Y3	Z3	X4	Y4	Z4	X5	Y5	Z5	X6	Y6	Z6	X7	Y7	Z7	X8	Y8	Z8	X9	Y9	Z9	X10	Y10	Z10	X11	Y11	Z11	X12	Y12	Z12	X13	Y13	Z13	X14	Y14	Z14	X15	Y15	Z15	X16	Y16	Z16	X17	Y17	Z17	X18	Y18	Z18	X19	Y19	Z19	X20	Y20	Z20	X21	Y21	Z21	X22	Y22	Z22	X23	Y23	Z23	X24	Y24	Z24	X25	Y25	Z25	X26	Y26	Z26	X27	Y27	Z27	X28	Y28	Z28	X29	Y29	Z29	X30	Y30	Z30	X31	Y31	Z31	X32	Y32	Z32	X33	Y33	Z33	X34	Y34	Z34	X35	Y35	Z35	X36	Y36	Z36	X37	Y37	Z37	X38	Y38	Z38	X39	Y39	Z39	X40	Y40	Z40	X41	Y41	Z41	X42	Y42	Z42	X43	Y43	Z43	X44	Y44	Z44	X45	Y45	Z45	

127	1.260	1349.06946	-17.39143	1658.72339	1481.25293	-13.54876	1650.71216	1354.70581	-152.93756	1609.65320	1484.39441	-147.56978	1607.21777	1413.56763	-159.36330	1450.94177	1427.55054	-191.19022	1121.44617	1416.66528	-48.56907	1372.93591	1417.67139	-8.00246	1197.98108	1498.54529	-231.86186	1282.09314	1253.39868	-104.67196	1401.13318	1185.90173	-132.93210	1199.59839	1177.42542	-155.85280	1089.63013	1151.97217	-153.84801	939.97180	1186.67603	-104.99036	816.90259	1153.20129	-167.83057	821.85461	1149.50549	-140.46005	734.94781	1574.83508	-96.12292	1410.56018	1671.65991	-123.18117	1215.94519	1689.99158	-103.13297	1096.92065	1710.39111	-55.53745	988.36011	1680.27637	46.98481	877.59766	1719.62097	-4.52680	861.07306	1723.98547	55.93239	802.87561	1330.30322	-4.22238	965.81000	1548.65002	-25.22216	964.95184	1346.12793	-166.00613	989.71344	1513.67151	-173.66402	987.01074	1269.45703	-29.58933	651.75806	1300.46252	-0.21936	493.01315	1317.49060	-13.29243	235.99324	1367.53699	-2.82973	67.50887	1414.03088	-42.54277	54.62579	1369.70032	142.15764	41.13553	1605.08472	-67.79845	623.23749	1592.35681	-54.06856	496.66595	1573.00854	-246.03784	327.85434	1517.79907	-392.50562	221.24995	1469.79150	-420.02356	246.75420	1507.09204	-371.78949	62.47059	1410.80603	-114.16627	1702.71973															 
128	1.270	1347.79614	-7.58456	1660.13318	1479.98926	-3.54908	1652.55872	1353.78687	-142.92403	1610.71277	1483.46289	-137.40318	1608.63489	1412.66162	-148.77667	1452.48987	1426.47302	-180.97865	1122.92383	1416.05444	-38.31016	1374.34729	1416.94434	2.19471	1199.32373	1497.25415	-222.00627	1283.65259	1252.64246	-93.70937	1402.59082	1184.62183	-120.03532	1200.78784	1175.92480	-141.54007	1090.50659	1150.74890	-136.41428	940.78937	1186.06641	-85.27460	818.87683	1152.05713	-148.02692	822.49847	1148.79736	-118.47673	736.16870	1574.23474	-86.06997	1411.65137	1670.85803	-114.47418	1216.87598	1688.77649	-95.77529	1097.40955	1709.02246	-49.91265	987.81665	1679.02881	50.52942	875.14795	1718.20984	-1.51529	859.55463	1722.25269	57.59531	799.78632	1329.65198	5.87296	966.89008	1548.35559	-15.11148	966.38855	1345.32727	-155.79973	990.89343	1512.85242	-163.55894	987.99011	1269.26013	-23.04997	652.45013	1299.83936	3.85146	493.03424	1317.97424	-12.88340	236.21117	1366.99365	-3.30642	68.02092	1414.20691	-42.50765	54.60167	1369.68164	141.99821	41.01109	1604.40894	-51.31344	625.03528	1591.69043	-33.79987	499.04327	1573.77295	-224.21222	330.11307	1518.40881	-372.70593	226.54095	1469.85889	-400.32623	251.81834	1510.08423	-354.46057	67.32047	1409.50806	-104.42356	1704.04993															 
129	1.280	1346.69556	2.17521	1661.55994	1478.88794	6.44020	1654.27258	1352.92810	-132.94878	1611.71045	1482.62671	-127.30186	1609.94861	1411.99622	-138.63254	1453.95520	1425.37915	-170.82275	1124.22888	1415.50208	-28.09555	1375.71106	1416.19592	12.35565	1200.63928	1495.71497	-211.98119	1284.98865	1251.96692	-82.87582	1403.93750	1183.43994	-107.19784	1201.84314	1174.55554	-127.07082	1091.15381	1149.50867	-118.79383	941.58105	1185.40967	-65.15673	820.90753	1151.14001	-127.82281	822.95044	1147.97803	-96.06490	737.57184	1573.80310	-76.05538	1412.64404	1670.01941	-105.97632	1217.65527	1687.65234	-88.20603	1097.76086	1707.60107	-44.47577	987.11877	1677.53430	53.56118	872.28461	1716.87122	1.25505	858.00507	1720.55396	58.95459	796.64935	1329.06409	15.83839	967.98822	1547.95471	-4.93171	967.92834	1344.56116	-145.70485	992.07520	1512.13062	-153.74863	989.12726	1268.97119	-16.61691	653.17035	1299.00220	7.74465	493.17538	1317.71179	-11.80570	236.45610	1367.01318	-3.66224	68.11969	1414.38049	-42.82983	54.72703	1369.54956	142.04176	40.94474	1603.62024	-34.99553	627.13641	1591.01367	-13.92972	501.75186	1573.93274	-203.12914	332.61514	1518.86646	-352.61230	230.79695	1469.99500	-381.06650	255.14217	1513.45386	-332.45224	72.22241	1408.39270	-94.69315	1705.32227															 
130	1.290	1345.73779	11.95807	1662.89868	1477.86707	16.37419	1655.82007	1352.15161	-122.98122	1612.69727	1481.84924	-117.20200	1611.08997	1411.25452	-128.34821	1455.24756	1424.33704	-160.78082	1125.45203	1414.96631	-17.84976	1376.96387	1415.46265	22.38961	1201.95422	1494.07532	-202.07750	1286.02612	1251.29065	-72.25375	1405.19312	1182.33008	-94.32055	1202.75403	1173.24146	-112.36137	1091.78503	1148.41394	-100.89161	942.32379	1184.73596	-44.80784	823.06073	1150.45605	-107.22390	823.39746	1146.93518	-73.45342	739.15063	1573.37817	-66.22594	1413.52148	1668.90186	-97.57658	1218.22949	1686.46716	-80.54270	1098.05188	1706.14197	-39.24532	986.38538	1675.68542	55.53806	868.89142	1715.24902	3.59656	856.11627	1718.66174	59.42296	793.42365	1328.44116	25.64523	969.06921	1547.24744	5.29438	969.51392	1343.82483	-135.76784	993.23004	1511.33276	-143.65889	990.20911	1268.86230	-10.44169	653.86414	1298.41919	11.77239	493.19254	1316.99536	-10.05370	236.56570	1366.92004	-3.59387	68.24721	1414.24719	-43.08805	54.95818	1369.40881	142.17665	40.85601	1602.88062	-18.87294	629.50006	1590.13379	5.45176	504.85300	1573.65466	-182.50143	335.27908	1519.36914	-332.29861	233.82852	1470.41016	-362.61313	256.51483	1516.93811	-307.02737	76.04984	1407.43848	-84.99231	1706.51660															 
131	1.300	1344.90051	21.71223	1664.10986	1477.08008	26.23927	1657.20251	1351.47961	-113.11527	1613.63062	1481.23657	-107.25599	1612.22424	1410.54102	-118.18920	1456.39246	1423.31470	-150.72530	1126.58484	1414.52747	-7.84694	1378.12537	1414.79004	32.43141	1203.17334	1492.41907	-192.14810	1286.93103	1250.68750	-61.86841	1406.27332	1181.43567	-81.34653	1203.51611	1172.02332	-97.76009	1092.25171	1147.41895	-82.85085	943.06555	1183.95654	-24.41611	825.30334	1149.72949	-86.74621	824.11572	1146.28296	-50.36607	740.69659	1573.00134	-56.49612	1414.37268	1667.64124	-89.19328	1218.78467	1685.03687	-72.78542	1098.35901	1704.66394	-33.90292	985.69476	1674.38892	58.06366	866.02478	1713.85583	5.74721	854.43646	1717.43896	60.56789	790.49585	1327.72974	35.34547	970.06726	1546.43591	15.67301	971.22308	1343.19788	-125.93351	994.27728	1510.59802	-132.99278	991.20685	1268.69421	-3.84457	654.46332	1297.87732	15.83192	493.20496	1315.77820	-7.68945	236.69141	1366.85461	-3.37862	68.26244	1414.09119	-43.08312	55.11643	1369.39197	142.31985	40.65055	1602.26416	-2.99856	631.92365	1589.18982	24.49674	508.01099	1573.01758	-162.50151	338.27945	1519.92737	-311.66754	235.54649	1471.05627	-344.02539	255.95506	1520.35522	-279.25378	79.27085	1406.69641	-75.26628	1707.60413															 
132	1.310	1344.17969	31.21613	1665.16284	1476.37817	36.18510	1658.36292	1350.99023	-103.31405	1614.55591	1480.75745	-97.30216	1613.22327	1409.88782	-108.09015	1457.40100	1422.33191	-140.68439	1127.59375	1414.02917	2.17720	1379.14282	1414.09290	42.41624	1204.29504	1490.92542	-182.25623	1287.78333	1250.10767	-51.61075	1407.32556	1180.61511	-68.40438	1204.26013	1170.81860	-82.98090	1092.76440	1146.49451	-64.76427	943.89893	1183.36853	-3.67363	827.65155	1149.04480	-66.07958	824.71729	1145.49060	-26.97681	742.61542	1572.57263	-46.85118	1415.21619	1666.38013	-80.79328	1219.35120	1683.49231	-65.04298	1098.72766	1703.08496	-28.69691	985.12744	1673.02454	60.31355	863.19806	1712.26770	7.61315	852.76410	1715.99353	60.95346	787.64105	1326.53479	45.38241	971.06793	1545.46790	26.06490	972.95135	1342.61548	-116.36817	995.20068	1510.06763	-123.05376	992.54620	1268.47314	2.92874	654.94067	1297.39526	19.95304	493.19226	1314.98975	-5.21869	236.62483	1367.10217	-3.19823	68.26846	1413.92334	-43.00792	55.32187	1369.44470	142.50002	40.43798	1601.47229	12.40131	634.71136	1588.10120	43.19192	511.28510	1572.30298	-142.34184	341.03510	1520.71362	-290.26276	235.59326	1472.03955	-324.66681	253.82175	1523.18921	-250.29868	81.39940	1406.07129	-65.48602	1708.59668															 
133	1.320	1343.60718	41.13691	1666.19409	1475.76233	46.07846	1659.31213	1350.52039	-93.51125	1615.45300	1480.19202	-87.32319	1614.04260	1409.09143	-97.86108	1458.26135	1421.42920	-130.77234	1128.48486	1413.54663	12.03165	1380.04932	1413.45581	52.30307	1205.25903	1489.62341	-172.46732	1288.62683	1249.54321	-41.41032	1408.24780	1179.89453	-55.49633	1204.95349	1169.71423	-68.27718	1093.28870	1145.66956	-46.52903	944.75916	1182.80750	17.19188	830.41272	1148.48206	-45.11566	825.51129	1144.71167	-3.55890	744.78625	1572.07739	-37.29173	1416.01001	1665.15039	-72.38686	1219.92554	1681.89746	-57.24249	1099.16882	1701.42786	-23.56488	984.65582	1671.68213	62.41338	860.57672	1710.76147	9.37381	851.35077	1714.61914	61.04660	784.98456	1325.47192	54.64198	971.66675	1544.46667	36.38547	974.48273	1342.16150	-106.82430	996.02960	1509.65625	-112.88405	993.67761	1268.16174	9.68906	655.28302	1297.00317	24.04863	493.13019	1314.66418	-2.86329	236.84961	1367.08496	-2.84342	68.32216	1413.79871	-42.63303	55.48732	1369.46680	142.72861	40.21305	1600.43860	28.14605	637.33002	1586.89282	61.44244	514.63953	1571.60461	-121.96164	342.91672	1521.72144	-268.10483	233.73399	1473.26123	-304.36313	250.17120	1525.56091	-220.79001	82.41374	1405.58374	-55.71481	1709.48120															 
134	1.330	1343.24622	50.86153	1666.92468	1475.29822	55.91104	1660.12231	1350.13281	-83.77048	1616.23376	1479.84448	-77.48327	1614.79749	1408.43079	-87.98522	1459.05835	1420.65076	-120.84402	1129.29968	1413.05676	21.94979	1380.93152	1412.89233	62.15976	1206.10974	1488.66711	-162.82176	1289.39258	1249.00940	-31.38578	1409.07898	1179.25635	-42.81321	1205.57446	1168.82849	-53.59171	1093.71643	1144.93262	-28.32538	945.78528	1182.67688	37.70363	832.91071	1148.07959	-23.95127	826.45764	1144.07935	20.07751	747.28955	1571.57703	-27.75784	1416.76563	1663.95032	-64.02802	1220.51208	1680.15161	-49.82812	1099.58154	1699.73181	-18.55431	984.31921	1670.33472	64.31722	858.04053	1709.37573	10.92503	850.22223	1713.25671	60.99884	782.50269	1324.10803	64.09354	972.18402	1543.25281	46.73843	975.90576	1341.83789	-97.36595	996.67493	1509.31702	-102.58601	994.69403	1268.01318	16.34010	655.43408	1296.67993	27.92299	493.00558	1314.67993	-1.44067	236.82338	1367.22412	-2.42883	68.58404	1414.05994	-42.51848	55.72884	1369.54089	142.88800	39.99503	1599.67310	43.36121	639.81171	1585.50989	79.28037	517.96515	1571.06860	-101.43909	343.84439	1522.73596	-245.37619	230.49632	1474.34119	-283.12292	244.97957	1527.64893	-190.95799	82.44971	1405.22278	-45.94712	1710.26904															 
135	1.340	1342.82495	60.63304	1667.64832	1474.92993	65.73508	1660.72803	1349.77979	-73.78184	1616.89331	1479.51294	-67.69543	1615.41211	1407.86340	-78.32653	1459.69690	1420.02722	-110.96754	1129.99097	1412.54370	31.78530	1381.60632	1412.20789	71.96317	1206.76697	1487.82446	-152.98621	1290.13416	1248.48010	-21.44358	1409.82068	1178.58972	-30.07735	1206.19299	1167.87622	-38.89730	1094.24500	1144.27087	-10.21415	946.88788	1182.42358	58.67225	835.90906	1147.70007	-2.76357	827.67261	1143.48010	43.84326	750.02899	1571.04651	-18.14807	1417.44775	1662.89453	-55.63660	1221.12280	1678.48865	-42.66285	1099.98743	1698.03931	-13.64769	984.04688	1668.92651	66.14581	855.61469	1707.87683	12.59836	849.12115	1712.02637	60.92212	780.26141	1322.61377	73.43132	972.51233	1542.06104	57.08921	977.02515	1341.52319	-87.87753	997.17035	1509.05896	-92.37330	995.71924	1267.83203	22.87074	655.40155	1296.42126	31.54383	492.72836	1314.69592	-0.53406	236.95419	1367.93286	-2.08079	68.57414	1414.23096	-42.57454	55.76794	1369.60986	143.15773	39.76554	1598.96643	58.36751	642.17242	1584.13696	96.73369	521.17010	1570.71301	-80.74675	343.63943	1523.60010	-222.06831	226.16133	1475.41357	-261.35468	238.62521	1529.55273	-160.44946	81.87970	1404.90417	-36.14025	1710.95374															 
